Coordinates
version=1
nRows=5
nColumns=40
inDegrees=yes

Units are S.I. units (second, meters, Newtons, ...)
If the header above contains a line with 'inDegrees', this indicates whether rotational values are in degrees (yes) or radians (no).

endheader
time	pelvis_tilt	pelvis_list	pelvis_rotation	pelvis_tx	pelvis_ty	pelvis_tz	hip_flexion_r	hip_adduction_r	hip_rotation_r	knee_angle_r	knee_angle_r_beta	ankle_angle_r	subtalar_angle_r	mtp_angle_r	hip_flexion_l	hip_adduction_l	hip_rotation_l	knee_angle_l	knee_angle_l_beta	ankle_angle_l	subtalar_angle_l	mtp_angle_l	lumbar_extension	lumbar_bending	lumbar_rotation	arm_flex_r	arm_add_r	arm_rot_r	elbow_flex_r	pro_sup_r	wrist_flex_r	wrist_dev_r	arm_flex_l	arm_add_l	arm_rot_l	elbow_flex_l	pro_sup_l	wrist_flex_l	wrist_dev_l
      0.00500000	     -3.81396776	     -0.72359632	      1.20392497	      0.25385071	      0.91115756	     -1.21148661	      4.54327479	    -15.51147973	    -30.42051034	     10.31276286	      0.17999167	     -0.83919425	     -4.74736188	      0.00000000	      4.98543545	    -17.31225468	    -36.47233453	      6.85446957	      0.11963306	      0.46849791	     18.14054055	      0.00000000	     -4.17065663	      0.03562649	     -0.33878892	     42.33062858	    -16.03293782	     42.33062858	     76.03371887	     44.76465170	      0.00000000	      0.00000000	     42.33062858	    -16.03293782	     42.33062858	     76.03371887	     44.76465170	      0.00000000	      0.00000000
      0.01000000	     -3.77808770	     -0.72365818	      1.20030480	      0.25380349	      0.91124099	     -1.21148249	      4.46805051	    -15.47028190	    -30.31594714	     10.19564539	      0.17794758	     -0.94682005	     -4.90766941	      0.00000000	      4.92209719	    -17.28247692	    -36.38837094	      6.77453950	      0.11823802	      0.41525358	     18.01948467	      0.00000000	     -4.22627513	      0.02891245	     -0.34933232	     42.35529519	    -16.02521132	     42.35529519	     76.03790489	     44.75802024	      0.00000000	      0.00000000	     42.35529519	    -16.02521132	     42.35529519	     76.03790489	     44.75802024	      0.00000000	      0.00000000
      0.01500000	     -3.79727349	     -0.71654792	      1.21054135	      0.25379203	      0.91118930	     -1.21148420	      4.51574508	    -15.50777549	    -30.40485529	     10.27928787	      0.17940742	     -0.85898913	     -4.79267068	      0.00000000	      4.96227132	    -17.29172261	    -36.42396960	      6.81771080	      0.11899150	      0.45374571	     18.08941332	      0.00000000	     -4.19204223	      0.10347036	     -0.09958489	     42.40943800	    -15.98948174	     42.40943800	     75.96767358	     44.79543202	      0.00000000	      0.00000000	     42.40943800	    -15.98948174	     42.40943800	     75.96767358	     44.79543202	      0.00000000	      0.00000000
      0.02000000	     -3.80679023	     -0.71530424	      1.18644345	      0.25376076	      0.91117362	     -1.21143892	      4.54879425	    -15.51739831	    -30.40612044	     10.30741705	      0.17989836	     -0.85072630	     -4.76062645	      0.00000000	      4.96445976	    -17.29310400	    -36.45351447	      6.81899579	      0.11901393	      0.44228869	     18.09597798	      0.00000000	     -4.18835421	      0.07065448	     -0.15010313	     42.44052617	    -15.96929898	     42.44052617	     75.92922663	     44.81443689	      0.00000000	      0.00000000	     42.44052617	    -15.96929898	     42.44052617	     75.92922663	     44.81443689	      0.00000000	      0.00000000
      0.02500000	     -3.80653808	     -0.71462413	      1.18249224	      0.25372204	      0.91117868	     -1.21143365	      4.54948315	    -15.51361097	    -30.39290664	     10.29462678	      0.17967513	     -0.86755866	     -4.78434938	      0.00000000	      4.95811722	    -17.28417893	    -36.43254538	      6.79671278	      0.11862502	      0.42679267	     18.06136618	      0.00000000	     -4.19824168	      0.04523227	     -0.21553086	     42.49522584	    -15.93631630	     42.49522584	     75.87155460	     44.84159597	      0.00000000	      0.00000000	     42.49522584	    -15.93631630	     42.49522584	     75.87155460	     44.84159597	      0.00000000	      0.00000000
